# xmcd
#
# Track frame offsets:
# 150
# 21123
# 39262
# 52731
# 69817
# 84096
# 100966
# 119159
# 138054
# 151955
# 164533
# 179811
# 195494
# 210178
# 225969
# 239735
# 255849
# 273178
# 291587
# 305947
#
# Disc length: 4269 seconds
#
#
# Revision: 0
# Processed by: cddbd v1.5.2PL0 Copyright (c) Steve Scherf et al.
# Submitted via: FreeRIP 2.945 
#
DISCID=0b10ab14
DTITLE=As 20 mais de João Paulo and Daniel - As 20 mais de João Paulo and Daniel
DYEAR=1900
DGENRE=Country
TTITLE0=Estou apaixonado
TTITLE1=Com qual carícia
TTITLE2=Tá faltando amor
TTITLE3=Hoje eu sei
TTITLE4=Alguém
TTITLE5=Mil loucuras de amor
TTITLE6=Minha estrela perdida
TTITLE7=Que dure para sempre
TTITLE8=Só dá você em minha vida
TTITLE9=Cheiro dela
TTITLE10=Tô ficando louco
TTITLE11=Rosto molhado
TTITLE12=Eu me amarrei
TTITLE13=Loira do carro branco
TTITLE14=Fazenda São Francisco
TTITLE15=Olhos claros
TTITLE16=Dia de visita
TTITLE17=Nelore valente
TTITLE18=Poeira da estrada
TTITLE19=Amargurado
EXTD=
EXTT0=
EXTT1=
EXTT2=
EXTT3=
EXTT4=
EXTT5=
EXTT6=
EXTT7=
EXTT8=
EXTT9=
EXTT10=
EXTT11=
EXTT12=
EXTT13=
EXTT14=
EXTT15=
EXTT16=
EXTT17=
EXTT18=
EXTT19=
PLAYORDER=
